<?xml version="1.0" encoding="utf-8"?>
<!-- Generator: Adobe Illustrator 22.0.1, SVG Export Plug-In . SVG Version: 6.00 Build 0)  -->
<svg version="1.1" id="Слой_1" xmlns="http://www.w3.org/2000/svg" xmlns:xlink="http://www.w3.org/1999/xlink" x="0px" y="0px"
	 viewBox="0 0 11 10" style="enable-background:new 0 0 11 10;" xml:space="preserve">
<style type="text/css">
	.st0{fill-rule:evenodd;clip-rule:evenodd;fill:#ffffff;}
</style>
<g>
	<path class="st0" d="M5.5,8.6c0.1-0.1,0.1-0.1,0.2-0.2C7.1,6.9,8.5,5.3,10,3.8c0.2-0.2,0.3-0.3,0.6-0.2c0.4,0.1,0.6,0.6,0.3,0.9
		c0,0.1-0.1,0.1-0.1,0.2C9.2,6.3,7.6,8,6,9.7c-0.4,0.4-0.7,0.4-1.1,0C3.4,8,1.8,6.3,0.2,4.6C0.1,4.5,0,4.3,0,4
		c0.1-0.4,0.6-0.6,0.9-0.3C1,3.7,1,3.8,1.1,3.8c1.4,1.5,2.9,3.1,4.3,4.6C5.4,8.5,5.4,8.5,5.5,8.6z"/>
	<path class="st0" d="M5.5,5.1C5.6,5,5.6,4.9,5.6,4.9C7.1,3.3,8.5,1.8,10,0.3C10.1,0.1,10.3,0,10.5,0C11,0.1,11.1,0.6,10.9,1
		c0,0.1-0.1,0.1-0.1,0.2C9.2,2.8,7.6,4.5,6,6.2C5.7,6.6,5.3,6.6,5,6.2C3.4,4.5,1.8,2.8,0.2,1.1C0.1,0.9,0,0.7,0,0.5
		C0.1,0,0.6-0.1,0.9,0.1C1,0.2,1,0.2,1.1,0.3c1.4,1.5,2.9,3.1,4.3,4.6C5.4,4.9,5.4,5,5.5,5.1z"/>
</g>
</svg>
